<svg width="22" height="22" viewBox="0 0 22 22" fill="none" xmlns="http://www.w3.org/2000/svg">
<path d="M21.6533 0H0.354971C0.260827 0 0.170539 0.0373986 0.103969 0.103969C0.0373986 0.170539 0 0.260827 0 0.354971V9.98357C0.000266854 10.1275 0.0296051 10.27 0.0862556 10.4023C0.142906 10.5347 0.225702 10.6543 0.32968 10.7539C0.52694 10.9437 0.790281 11.0493 1.06403 11.0485C1.08089 11.0485 1.09819 11.048 1.1155 11.0472C1.39161 11.032 1.65124 10.9109 1.84022 10.709C2.0292 10.5072 2.13295 10.2401 2.12983 9.9636V3.19474C2.12983 3.1006 2.16723 3.01031 2.2338 2.94374C2.30037 2.87717 2.39066 2.83977 2.4848 2.83977C2.57894 2.83977 2.66923 2.87717 2.7358 2.94374C2.80237 3.01031 2.83977 3.1006 2.83977 3.19474V6.03451C2.84004 6.17849 2.86938 6.32093 2.92603 6.45329C2.98268 6.58565 3.06547 6.70521 3.16945 6.8048C3.27328 6.90502 3.39663 6.98278 3.53183 7.03324C3.66703 7.0837 3.81117 7.10578 3.95527 7.0981C4.23139 7.08299 4.49101 6.96186 4.67999 6.75998C4.86897 6.5581 4.97272 6.29106 4.9696 6.01455V3.19474C4.96973 3.10064 5.00717 3.01042 5.07371 2.94388C5.14025 2.87734 5.23047 2.8399 5.32457 2.83977H5.67954C5.77365 2.8399 5.86386 2.87734 5.9304 2.94388C5.99694 3.01042 6.03438 3.10064 6.03451 3.19474V4.25966C5.94037 4.25966 5.85008 4.29706 5.78351 4.36363C5.71694 4.4302 5.67954 4.52048 5.67954 4.61463V12.5442C5.46726 12.6451 5.28791 12.804 5.16226 13.0026C5.03661 13.2012 4.96981 13.4314 4.9696 13.6664V14.9088C4.9696 15.0029 5.007 15.0932 5.07357 15.1598C5.14014 15.2264 5.23043 15.2638 5.32457 15.2638H7.80937V15.9737C7.80937 16.0679 7.84677 16.1581 7.91334 16.2247C7.97991 16.2913 8.0702 16.3287 8.16434 16.3287H9.58423V20.7658C9.58459 21.0952 9.7156 21.411 9.94852 21.6439C10.1814 21.8768 10.4972 22.0079 10.8266 22.0082H11.1816C11.511 22.0079 11.8268 21.8768 12.0597 21.6439C12.2926 21.411 12.4236 21.0952 12.424 20.7658V16.3287H13.8439C13.938 16.3287 14.0283 16.2913 14.0949 16.2247C14.1615 16.1581 14.1989 16.0679 14.1989 15.9737V15.2638H16.6837C16.7778 15.2638 16.8681 15.2264 16.9347 15.1598C17.0012 15.0932 17.0386 15.0029 17.0386 14.9088V13.6664C17.0384 13.4314 16.9716 13.2012 16.846 13.0026C16.7203 12.804 16.541 12.6451 16.3287 12.5442V4.61463C16.3287 4.52048 16.2913 4.4302 16.2247 4.36363C16.1581 4.29706 16.0679 4.25966 15.9737 4.25966C15.974 3.88478 16.1224 3.52522 16.3866 3.25927C16.6508 2.99333 17.0094 2.84255 17.3843 2.83977H17.3932C17.5764 2.84042 17.7578 2.87729 17.9267 2.94826C18.0957 3.01923 18.249 3.1229 18.3778 3.25331C18.6545 3.52802 18.8112 3.9012 18.8135 4.29116V6.74446C18.8133 6.88447 18.8408 7.02314 18.8943 7.15251C18.9478 7.28188 19.0264 7.39941 19.1254 7.49835C19.2245 7.59729 19.3421 7.6757 19.4716 7.72907C19.601 7.78244 19.7397 7.80973 19.8797 7.80937H19.8868C20.17 7.804 20.4396 7.68732 20.6373 7.4846C20.8351 7.28189 20.945 7.00944 20.9433 6.72626V3.37223C20.9434 3.23105 20.9996 3.09568 21.0994 2.99585C21.1992 2.89602 21.3346 2.83989 21.4758 2.83977H21.6533C21.7474 2.83977 21.8377 2.80237 21.9043 2.7358C21.9708 2.66923 22.0082 2.57894 22.0082 2.4848V0.354971C22.0082 0.260827 21.9708 0.170539 21.9043 0.103969C21.8377 0.0373986 21.7474 0 21.6533 0ZM11.7141 20.7658C11.7139 20.907 11.6578 21.0424 11.558 21.1422C11.4581 21.242 11.3228 21.2982 11.1816 21.2983H10.8266C10.6854 21.2982 10.5501 21.242 10.4503 21.1422C10.3504 21.0424 10.2943 20.907 10.2942 20.7658V16.3287H11.7141V20.7658ZM13.4889 15.6187H8.51931V15.2638H13.4889V15.6187ZM16.3287 13.6664V14.5538H5.67954V13.6664C5.67966 13.5252 5.7358 13.3899 5.83562 13.29C5.93545 13.1902 6.07082 13.1341 6.212 13.1339H15.7962C15.9374 13.1341 16.0728 13.1902 16.1726 13.29C16.2724 13.3899 16.3286 13.5252 16.3287 13.6664ZM14.5538 8.16434C14.4597 8.16434 14.3694 8.20174 14.3028 8.26831C14.2363 8.33488 14.1989 8.42517 14.1989 8.51931V12.424H13.4889V6.38948C13.4889 6.29534 13.4515 6.20505 13.3849 6.13848C13.3184 6.07191 13.2281 6.03451 13.1339 6.03451C13.0398 6.03451 12.9495 6.07191 12.8829 6.13848C12.8164 6.20505 12.779 6.29534 12.779 6.38948V12.424H12.069V7.80937C12.069 7.71523 12.0316 7.62494 11.9651 7.55837C11.8985 7.4918 11.8082 7.4544 11.7141 7.4544C11.6199 7.4544 11.5296 7.4918 11.4631 7.55837C11.3965 7.62494 11.3591 7.71523 11.3591 7.80937V12.424H10.6491V6.38948C10.6491 6.29534 10.6117 6.20505 10.5452 6.13848C10.4786 6.07191 10.3883 6.03451 10.2942 6.03451C10.2 6.03451 10.1097 6.07191 10.0432 6.13848C9.9766 6.20505 9.9392 6.29534 9.9392 6.38948V12.424H9.22926V7.09943C9.22926 7.00528 9.19186 6.91499 9.12529 6.84842C9.05872 6.78185 8.96843 6.74446 8.87428 6.74446C8.78014 6.74446 8.68985 6.78185 8.62328 6.84842C8.55671 6.91499 8.51931 7.00528 8.51931 7.09943V12.424H7.80937V9.22926C7.80937 9.13511 7.77197 9.04482 7.7054 8.97825C7.63883 8.91168 7.54854 8.87428 7.4544 8.87428C7.36025 8.87428 7.26997 8.91168 7.2034 8.97825C7.13683 9.04482 7.09943 9.13511 7.09943 9.22926V12.424H6.38948V4.9696H7.6625L8.26817 5.57571C8.33484 5.64221 8.42515 5.67955 8.51931 5.67955C8.61347 5.67955 8.70379 5.64221 8.77046 5.57571L9.37613 4.9696H11.9222L12.5278 5.57571C12.5945 5.64221 12.6848 5.67955 12.779 5.67955C12.8731 5.67955 12.9634 5.64221 13.0301 5.57571L13.5848 5.02063L14.4416 5.30638C14.5309 5.33598 14.6283 5.32912 14.7127 5.2873L15.3476 4.9696H15.6187V12.424H14.9088V8.51931C14.9088 8.42517 14.8714 8.33488 14.8048 8.26831C14.7383 8.20174 14.648 8.16434 14.5538 8.16434ZM21.2983 2.1427C21.0028 2.18569 20.7326 2.33356 20.537 2.5593C20.3415 2.78504 20.2337 3.07359 20.2334 3.37223V6.72626C20.2355 6.82214 20.1998 6.91501 20.1341 6.98483C20.0683 7.05464 19.9778 7.09581 19.8819 7.09943H19.8793C19.8326 7.09961 19.7863 7.09056 19.7431 7.07279C19.6999 7.05503 19.6606 7.0289 19.6276 6.99592C19.5945 6.96293 19.5683 6.92373 19.5504 6.88058C19.5325 6.83743 19.5234 6.79116 19.5234 6.74446V4.29116C19.5207 3.71224 19.2887 3.15799 18.8783 2.7497C18.6838 2.55362 18.4524 2.39791 18.1976 2.29153C17.9427 2.18516 17.6693 2.1302 17.3932 2.12983H17.3794C16.817 2.13365 16.279 2.35972 15.8826 2.75872C15.4863 3.15771 15.2638 3.69726 15.2638 4.25966C15.2087 4.25971 15.1543 4.27246 15.1049 4.29693L14.5268 4.58623L13.6012 4.27785C13.5386 4.25702 13.4715 4.254 13.4073 4.26912C13.3431 4.28425 13.2844 4.31692 13.2378 4.36349L12.779 4.82273L12.3202 4.36349C12.2535 4.29697 12.1632 4.25962 12.069 4.25966H9.22926C9.13509 4.25962 9.04476 4.29697 8.97811 4.36349L8.51931 4.82273L8.06051 4.36349C7.99386 4.29697 7.90354 4.25962 7.80937 4.25966H6.74446V3.19474C6.74408 2.91243 6.63176 2.64178 6.43214 2.44215C6.23251 2.24252 5.96186 2.1302 5.67954 2.12983H5.32457C5.04225 2.1302 4.77161 2.24252 4.57198 2.44215C4.37235 2.64178 4.26003 2.91243 4.25966 3.19474V6.01455C4.26137 6.10815 4.22744 6.19891 4.16475 6.26845C4.10205 6.33798 4.01528 6.38109 3.92199 6.38904C3.87398 6.39138 3.82599 6.38395 3.78093 6.36719C3.73588 6.35043 3.6947 6.3247 3.65989 6.29155C3.62507 6.2584 3.59736 6.21852 3.57842 6.17434C3.55948 6.13015 3.54972 6.08258 3.54971 6.03451V3.19474C3.54971 2.91231 3.43752 2.64144 3.23781 2.44173C3.0381 2.24202 2.76723 2.12983 2.4848 2.12983C2.20237 2.12983 1.9315 2.24202 1.73179 2.44173C1.53208 2.64144 1.41989 2.91231 1.41989 3.19474V9.9636C1.4216 10.0572 1.38767 10.148 1.32498 10.2175C1.26228 10.287 1.1755 10.3301 1.08222 10.3381C1.03421 10.3404 0.986216 10.333 0.941161 10.3162C0.896106 10.2995 0.854925 10.2738 0.820114 10.2406C0.785303 10.2075 0.757588 10.1676 0.73865 10.1234C0.719712 10.0792 0.709946 10.0316 0.709943 9.98357V0.709943H21.2983V2.1427Z" fill="white"/>
<path d="M14.2544 3.90618C14.5367 3.90585 14.8074 3.79355 15.007 3.59391C15.2067 3.39427 15.319 3.1236 15.3193 2.84127V1.42138C15.3193 1.32723 15.2819 1.23695 15.2153 1.17038C15.1487 1.10381 15.0585 1.06641 14.9643 1.06641C14.8702 1.06641 14.7799 1.10381 14.7133 1.17038C14.6467 1.23695 14.6093 1.32723 14.6093 1.42138V2.84127C14.6093 2.93541 14.5719 3.0257 14.5054 3.09227C14.4388 3.15884 14.3485 3.19624 14.2544 3.19624C14.1602 3.19624 14.0699 3.15884 14.0034 3.09227C13.9368 3.0257 13.8994 2.93541 13.8994 2.84127V2.13132C13.8994 2.03718 13.862 1.94689 13.7954 1.88032C13.7289 1.81375 13.6386 1.77635 13.5444 1.77635C13.4503 1.77635 13.36 1.81375 13.2934 1.88032C13.2269 1.94689 13.1895 2.03718 13.1895 2.13132V2.84127C13.1898 3.1236 13.3021 3.39427 13.5017 3.59391C13.7014 3.79355 13.972 3.90585 14.2544 3.90618Z" fill="white"/>
</svg>
