<svg width="22" height="22" viewBox="0 0 22 22" fill="none" xmlns="http://www.w3.org/2000/svg">
<path d="M21.7729 9.66361L11.54 0.208563C11.2419 -0.0695211 10.7664 -0.0695211 10.4683 0.208563L0.235706 9.66324C0.0850626 9.80238 0 9.99412 0 10.1945C0 10.6023 0.345458 10.9328 0.771542 10.9328H2.13139V21.2699C2.13139 21.6777 2.4768 22.0082 2.90293 22.0082H8.30373C8.72986 22.0082 9.07527 21.6777 9.07527 21.2699V15.363H12.933V21.2699C12.933 21.6777 13.2784 22.0082 13.7045 22.0082H19.1053C19.5315 22.0082 19.8769 21.6777 19.8769 21.2699V10.9328H21.2367C21.4459 10.9328 21.6461 10.8516 21.7914 10.7077C22.0876 10.4144 22.0793 9.947 21.7729 9.66361ZM19.8769 10.1945C19.4507 10.1945 19.1053 10.525 19.1053 10.9328V21.2699H13.7045V15.363C13.7045 14.9552 13.3591 14.6246 12.933 14.6246H9.07527C8.64914 14.6246 8.30373 14.9552 8.30373 15.363V21.2699H2.90293V10.9328C2.90293 10.525 2.55752 10.1945 2.13139 10.1945H0.771542L11.0041 0.739812L21.2406 10.1945H19.8769Z" fill="white"/>
</svg>
