<svg width="23" height="34" viewBox="0 0 23 34" fill="none" xmlns="http://www.w3.org/2000/svg">
<path d="M21.7023 2.0632H21.398V0.515783C21.398 0.230902 21.2408 0 21.0468 0H18.3311C18.1371 0 17.9799 0.230967 17.9799 0.515783V2.0632H17.582C17.388 2.0632 17.2308 2.29416 17.2308 2.57898V4.22955C17.2308 4.51443 17.388 4.74534 17.582 4.74534H17.9799V6.29275C17.9799 6.57763 18.1371 6.80853 18.3311 6.80853C18.5251 6.80853 18.6823 6.57757 18.6823 6.29275V4.7454H20.6957V12.2073C20.6957 15.3359 18.9627 17.8811 16.8328 17.8811H14.1873V14.7863H16.9264C17.8946 14.7863 18.6823 13.6294 18.6823 12.2073V9.04366C18.6823 8.75878 18.5251 8.52787 18.3311 8.52787C18.1371 8.52787 17.98 8.75884 17.98 9.04366V12.2073C17.98 13.0605 17.5074 13.7547 16.9265 13.7547H14.1874V13.0326C14.1874 12.7477 14.0301 12.5168 13.8362 12.5168H12.7124C12.5184 12.5168 12.3613 12.7478 12.3613 13.0326V13.7547H11.5652V10.1097H11.942C12.0953 10.9025 12.5923 11.4852 13.1805 11.4852C13.8905 11.4852 14.4681 10.6367 14.4681 9.59389C14.4681 8.55104 13.8905 7.70262 13.1805 7.70262C12.5923 7.70262 12.0952 8.28529 11.942 9.07811H10.486C10.3327 8.28529 9.83564 7.70262 9.24742 7.70262C8.53746 7.70262 7.9598 8.55104 7.9598 9.59389C7.9598 10.6367 8.53746 11.4852 9.24742 11.4852C9.83564 11.4852 10.3327 10.9025 10.486 10.1097H10.8628V13.7547H10.0668V13.0326C10.0668 12.7477 9.90959 12.5168 9.71563 12.5168H8.59188C8.39788 12.5168 8.24072 12.7478 8.24072 13.0326V13.7547H5.31428C2.79698 13.7547 0.749048 16.7627 0.749048 20.4601V22.7984C0.749048 23.0833 0.906252 23.3142 1.10021 23.3142C1.2942 23.3142 1.45136 23.0832 1.45136 22.7984V20.4601C1.45136 17.3315 3.18427 14.7863 5.31423 14.7863H8.24068V17.8811H5.22059C4.25237 17.8811 3.46471 19.038 3.46471 20.4602V28.3348H1.45145V25.5494C1.45145 25.2646 1.29425 25.0337 1.10029 25.0337C0.906296 25.0337 0.749137 25.2646 0.749137 25.5494V28.3348H0.351158C0.15716 28.3348 0 28.5658 0 28.8506V30.5011C0 30.786 0.157204 31.0169 0.351158 31.0169H0.749137V32.5643C0.749137 32.8492 0.906341 33.0801 1.10029 33.0801H3.816C4.01 33.0801 4.16716 32.8492 4.16716 32.5643V31.0169H4.4715C4.6655 31.0169 4.82266 30.786 4.82266 30.5011V28.8506C4.82266 28.5657 4.66545 28.3348 4.4715 28.3348H4.16716V20.4602C4.16716 19.6069 4.63979 18.9128 5.22068 18.9128H8.24077V19.6349C8.24077 19.9197 8.39797 20.1506 8.59193 20.1506H9.71568C9.90967 20.1506 10.0668 19.9197 10.0668 19.6349V18.9128H12.3612V19.6349C12.3612 19.9197 12.5184 20.1506 12.7123 20.1506H13.8361C14.0301 20.1506 14.1872 19.9197 14.1872 19.6349V18.9128H16.8327C19.35 18.9128 21.3979 15.9047 21.3979 12.2073V4.7454H21.7023C21.8963 4.7454 22.0534 4.51443 22.0534 4.22962V2.57905C22.0535 2.29416 21.8963 2.0632 21.7023 2.0632ZM13.1806 8.73425C13.5033 8.73425 13.7659 9.11989 13.7659 9.59396C13.7659 10.068 13.5033 10.4536 13.1806 10.4536C12.8578 10.4536 12.5953 10.068 12.5953 9.59396C12.5953 9.11996 12.8578 8.73425 13.1806 8.73425ZM9.24742 10.4536C8.92467 10.4536 8.66211 10.068 8.66211 9.59396C8.66211 9.11996 8.92467 8.73425 9.24742 8.73425C9.57018 8.73425 9.83268 9.11989 9.83268 9.59396C9.83268 10.068 9.57018 10.4536 9.24742 10.4536ZM3.4648 32.0486H1.45145V31.0169H3.46485V32.0486H3.4648ZM4.12034 29.9854H0.702272V29.3664H4.12034V29.9854ZM9.36452 19.1191H8.94313V13.5485H9.36452V19.1191ZM12.3612 17.8812H10.0668V14.7864H12.3612V17.8812ZM13.4849 19.1191H13.0635V13.5485H13.4849V19.1191ZM18.6823 1.03163H20.6957V2.06326H18.6823V1.03163ZM21.3511 3.71377H17.9331V3.09483H21.3511V3.71377Z" fill="white"/>
</svg>
