<svg width="23" height="36" viewBox="0 0 23 36" fill="none" xmlns="http://www.w3.org/2000/svg">
<path d="M19.9865 15.1012C21.4036 13.1327 22.7418 11.2735 22.7418 9.39018C22.7418 6.89975 21.5438 4.51132 19.4114 2.75032C17.2789 0.98932 14.3867 0 11.3709 0C8.35516 0 5.46292 0.98932 3.33046 2.75032C1.198 4.51132 0 6.89975 0 9.39018C0 11.2735 1.33822 13.1327 2.75532 15.1012C4.02886 16.8712 5.34504 18.6999 5.68546 20.5833V22.3017H4.97478C4.78629 22.3017 4.60553 22.3635 4.47225 22.4736C4.33897 22.5836 4.26409 22.7329 4.26409 22.8886V24.6492C4.26402 24.7825 4.31891 24.9119 4.41973 25.016L6.34284 27.0015C5.93543 27.0079 5.53892 27.1112 5.2008 27.299C4.86268 27.4868 4.5973 27.7511 4.43643 28.0603C4.27556 28.3695 4.22604 28.7104 4.29379 29.0422C4.36154 29.374 4.54369 29.6827 4.81843 29.9312C4.5595 30.1651 4.38251 30.4528 4.3064 30.7635C4.2303 31.0741 4.25794 31.396 4.38638 31.6946C4.51482 31.9933 4.73921 32.2575 5.03553 32.4589C5.33184 32.6603 5.68892 32.7914 6.06852 32.838L8.73642 35.0412C8.86967 35.1513 9.0504 35.2131 9.23887 35.2132H13.503C13.6914 35.2131 13.8722 35.1513 14.0054 35.0412L16.6733 32.838C17.0529 32.7914 17.41 32.6603 17.7063 32.4589C18.0026 32.2575 18.227 31.9933 18.3555 31.6946C18.4839 31.396 18.5115 31.0741 18.4354 30.7635C18.3593 30.4528 18.1823 30.1651 17.9234 29.9312C18.1981 29.6827 18.3803 29.374 18.448 29.0422C18.5158 28.7104 18.4663 28.3695 18.3054 28.0603C18.1445 27.7511 17.8792 27.4868 17.541 27.299C17.2029 27.1112 16.8064 27.0079 16.399 27.0015L18.3221 25.016C18.4229 24.9119 18.4778 24.7825 18.4777 24.6492V22.8886C18.4777 22.7329 18.4029 22.5836 18.2696 22.4736C18.1363 22.3635 17.9555 22.3017 17.7671 22.3017H17.0564V20.5833C17.3968 18.6999 18.713 16.8712 19.9865 15.1012ZM13.2087 34.0394H9.53309L8.11173 32.8656H14.6301L13.2087 34.0394ZM16.3457 31.6918H6.39614C6.20766 31.6918 6.02689 31.63 5.89361 31.52C5.76033 31.4099 5.68546 31.2606 5.68546 31.105C5.68546 30.9493 5.76033 30.8 5.89361 30.69C6.02689 30.5799 6.20766 30.5181 6.39614 30.5181H16.3457C16.5342 30.5181 16.7149 30.5799 16.8482 30.69C16.9815 30.8 17.0564 30.9493 17.0564 31.105C17.0564 31.2606 16.9815 31.4099 16.8482 31.52C16.7149 31.63 16.5342 31.6918 16.3457 31.6918ZM17.0564 28.7574C17.0564 28.9131 16.9815 29.0623 16.8482 29.1724C16.7149 29.2825 16.5342 29.3443 16.3457 29.3443H6.39614C6.20766 29.3443 6.02689 29.2825 5.89361 29.1724C5.76033 29.0623 5.68546 28.9131 5.68546 28.7574C5.68546 28.6018 5.76033 28.4525 5.89361 28.3424C6.02689 28.2324 6.20766 28.1705 6.39614 28.1705H16.3457C16.5342 28.1705 16.7149 28.2324 16.8482 28.3424C16.9815 28.4525 17.0564 28.6018 17.0564 28.7574ZM17.0564 24.4432L14.5832 26.9968H8.15863L5.68546 24.4432V23.4754H17.0564V24.4432ZM10.5408 18.457L9.23887 16.8436V15.8459H13.503V16.8436L12.201 18.4564C12.1237 18.5524 12.0822 18.6651 12.0816 18.7804V22.3017H10.6602V18.7804C10.66 18.6645 10.6185 18.5512 10.5408 18.4546V18.457ZM15.6421 20.46C15.6374 20.4868 15.635 20.5139 15.635 20.541V22.3017H13.503V18.9564L14.8049 17.3437C14.8822 17.2476 14.9237 17.135 14.9243 17.0197V15.8459H15.635C16.0567 15.8459 16.4689 15.7427 16.8195 15.5492C17.1701 15.3557 17.4434 15.0808 17.6048 14.759C17.7661 14.4373 17.8084 14.0833 17.7261 13.7418C17.6438 13.4002 17.4408 13.0865 17.1426 12.8403C16.8444 12.5941 16.4645 12.4264 16.051 12.3584C15.6374 12.2905 15.2087 12.3254 14.8191 12.4586C14.4295 12.5919 14.0966 12.8176 13.8623 13.1071C13.628 13.3966 13.503 13.737 13.503 14.0853V14.6722H9.23887V14.0853C9.23887 13.737 9.11383 13.3966 8.87956 13.1071C8.64528 12.8176 8.3123 12.5919 7.92272 12.4586C7.53314 12.3254 7.10446 12.2905 6.69088 12.3584C6.2773 12.4264 5.89741 12.5941 5.59924 12.8403C5.30107 13.0865 5.09801 13.4002 5.01574 13.7418C4.93348 14.0833 4.9757 14.4373 5.13707 14.759C5.29844 15.0808 5.57171 15.3557 5.92232 15.5492C6.27294 15.7427 6.68514 15.8459 7.10682 15.8459H7.81751V17.0197C7.81773 17.1356 7.85925 17.2489 7.9369 17.3454L9.23887 18.9564V22.3017H7.10682V20.541C7.10693 20.5131 7.10456 20.4853 7.09972 20.4577C6.73158 18.3279 5.33083 16.3829 3.97698 14.5014C2.66293 12.6767 1.42136 10.9507 1.42136 9.39018C1.42136 7.21105 2.46962 5.12118 4.33552 3.5803C6.20142 2.03943 8.73213 1.17377 11.3709 1.17377C14.0097 1.17377 16.5404 2.03943 18.4063 3.5803C20.2722 5.12118 21.3205 7.21105 21.3205 9.39018C21.3205 10.9507 20.0789 12.6767 18.762 14.5014C17.4117 16.3829 16.0103 18.3279 15.6421 20.4577V20.46ZM14.9243 14.6722V14.0853C14.9243 13.9692 14.966 13.8557 15.0441 13.7592C15.1222 13.6627 15.2332 13.5875 15.363 13.5431C15.4929 13.4986 15.6358 13.487 15.7737 13.5097C15.9115 13.5323 16.0381 13.5882 16.1375 13.6703C16.2369 13.7524 16.3046 13.8569 16.332 13.9708C16.3595 14.0846 16.3454 14.2026 16.2916 14.3099C16.2378 14.4171 16.1467 14.5088 16.0298 14.5732C15.913 14.6377 15.7756 14.6722 15.635 14.6722H14.9243ZM7.81751 14.0853V14.6722H7.10682C6.96626 14.6722 6.82886 14.6377 6.71199 14.5732C6.59512 14.5088 6.50403 14.4171 6.45024 14.3099C6.39645 14.2026 6.38237 14.0846 6.4098 13.9708C6.43722 13.8569 6.5049 13.7524 6.60429 13.6703C6.70369 13.5882 6.83032 13.5323 6.96818 13.5097C7.10603 13.487 7.24893 13.4986 7.37879 13.5431C7.50865 13.5875 7.61964 13.6627 7.69773 13.7592C7.77583 13.8557 7.81751 13.9692 7.81751 14.0853Z" fill="white"/>
</svg>
